<?xml version="1.0" standalone="no"?>
<!DOCTYPE svg PUBLIC "-//W3C//DTD SVG 20010904//EN"
 "http://www.w3.org/TR/2001/REC-SVG-20010904/DTD/svg10.dtd">
<svg version="1.0" xmlns="http://www.w3.org/2000/svg"
 width="1444.000000pt" height="1021.000000pt" viewBox="0 0 1444.000000 1021.000000"
 preserveAspectRatio="xMidYMid meet">
<metadata>
Created by potrace 1.13, written by Peter Selinger 2001-2015
</metadata>
<g transform="translate(0.000000,1021.000000) scale(0.100000,-0.100000)"
fill="#000000" stroke="none">
<path d="M0 5105 l0 -5105 7220 0 7220 0 0 5105 0 5105 -7220 0 -7220 0 0
-5105z m3224 3388 c-3 -16 -24 -136 -48 -268 l-42 -240 -190 -3 -190 -2 48
267 c26 148 48 269 48 271 0 1 85 2 190 2 l190 0 -6 -27z m-264 -1148 l0 -385
-49 0 -48 0 61 -165 c33 -91 64 -165 67 -165 3 0 33 73 66 163 l61 162 -49 3
-49 3 0 385 0 384 741 0 c672 0 741 -1 735 -16 -3 -9 -6 -1106 -6 -2438 l0
-2423 -2155 -2 -2155 -2 0 2409 c0 1325 -3 2424 -6 2441 l-6 31 1396 0 1396 0
0 -385z m11280 -2055 l0 -2440 -3470 0 -3470 0 0 1575 0 1575 154 0 153 0 -18
-102 c-10 -57 -19 -113 -19 -125 l0 -23 208 0 209 0 17 103 c10 56 20 112 23
125 5 21 9 22 114 22 l109 0 0 -46 c0 -25 4 -44 8 -42 5 2 82 30 170 63 89 33
162 62 162 65 0 4 -77 34 -327 127 -10 4 -13 -10 -13 -51 l0 -56 -105 0 c-104
0 -105 0 -100 23 2 12 12 63 21 112 8 50 18 100 21 113 l5 22 -213 -2 -213 -3
-7 -35 c-4 -19 -14 -79 -24 -132 l-17 -98 -159 0 -159 0 0 835 0 835 3470 0
3470 0 0 -2440z m-7451 1073 c-2 -31 -3 -33 -6 -10 -2 15 -11 27 -19 27 -8 0
-14 5 -14 10 0 6 9 10 20 10 17 0 20 -6 19 -37z m1271 -65 c0 -7 -20 -125 -45
-263 -25 -137 -45 -253 -45 -257 0 -5 -86 -8 -191 -8 l-191 0 5 23 c3 12 25
133 48 270 l44 247 187 0 c144 0 188 -3 188 -12z m-1220 -243 c0 -43 -1 -45
-30 -45 -29 0 -30 2 -30 45 0 43 1 45 30 45 29 0 30 -2 30 -45z m-53 -327 c-2
-29 -3 -8 -3 47 0 55 1 79 3 53 2 -26 2 -71 0 -100z m-3397 -3369 c0 -30 -1
-30 -47 -27 -44 3 -48 5 -51 31 -3 26 -2 27 47 27 50 0 51 -1 51 -31z m-323
-23 c3 -3 -6 -6 -20 -6 -17 0 -27 -5 -27 -15 0 -8 -4 -15 -10 -15 -5 0 -10 11
-10 24 0 20 4 23 30 21 17 -1 33 -5 37 -9z m611 -3 c-26 -2 -71 -2 -100 0 -29
2 -8 3 47 3 55 0 79 -1 53 -3z m1419 -165 c-3 -8 -6 -5 -6 6 -1 11 2 17 5 13
3 -3 4 -12 1 -19z m3250 -115 c-3 -16 -24 -137 -48 -270 l-43 -243 -189 0
-189 0 5 28 c2 15 24 136 48 270 l42 242 190 0 190 0 -6 -27z m-7819 -610 c-3
-10 -24 -132 -49 -270 l-44 -253 -187 0 c-150 0 -188 3 -188 13 0 8 20 127 45
266 25 139 45 254 45 257 0 2 86 4 191 4 177 0 191 -1 187 -17z m7822 -120 c0
-16 -92 -518 -96 -525 -3 -5 -89 -8 -191 -8 l-185 0 5 28 c2 15 24 136 48 270
l42 242 189 0 c103 0 188 -3 188 -7z m-7827 -775 c-3 -18 -24 -139 -47 -268
l-42 -235 -187 -3 c-173 -2 -187 -1 -187 15 0 10 20 131 45 268 25 138 45 251
45 253 0 1 85 2 189 2 l190 0 -6 -32z m7827 25 c0 -16 -92 -518 -96 -525 -3
-5 -89 -8 -191 -8 l-185 0 5 28 c2 15 24 136 48 270 l42 242 189 0 c103 0 188
-3 188 -7z"/>
<path d="M3010 8321 c0 -5 -9 -13 -20 -16 -11 -3 -20 -11 -20 -16 0 -5 9 -9
20 -9 18 0 20 -7 20 -60 0 -33 4 -60 10 -60 6 0 10 35 10 85 0 50 -4 85 -10
85 -5 0 -10 -4 -10 -9z"/>
<path d="M423 7378 c-31 -35 -43 -63 -43 -103 0 -82 65 -135 140 -115 37 10
70 47 70 80 0 18 -28 10 -35 -10 -15 -48 -75 -60 -117 -23 -34 30 -27 134 11
157 25 16 74 9 92 -12 22 -28 49 -29 42 -2 -14 52 -121 70 -160 28z"/>
<path d="M1410 7280 c0 -100 3 -120 15 -120 13 0 15 20 15 120 0 100 -2 120
-15 120 -12 0 -15 -20 -15 -120z"/>
<path d="M1480 7280 c0 -100 3 -120 15 -120 13 0 15 20 15 120 0 100 -2 120
-15 120 -12 0 -15 -20 -15 -120z"/>
<path d="M1017 7383 c-4 -3 -7 -17 -7 -30 0 -14 -6 -23 -15 -23 -8 0 -15 -4
-15 -10 0 -5 7 -10 15 -10 12 0 15 -13 15 -59 0 -78 6 -91 41 -91 33 0 39 19
9 27 -17 5 -20 14 -20 64 0 52 2 59 20 59 11 0 20 5 20 10 0 6 -9 10 -20 10
-16 0 -20 7 -20 30 0 29 -9 38 -23 23z"/>
<path d="M664 7326 c-35 -16 -44 -32 -44 -85 0 -49 33 -81 81 -81 42 1 67 19
78 56 13 48 -5 93 -44 110 -40 16 -33 16 -71 0z m70 -32 c26 -25 20 -81 -9
-100 -23 -15 -27 -15 -50 0 -18 12 -25 25 -25 48 0 56 49 87 84 52z"/>
<path d="M868 7325 c-16 -7 -28 -10 -28 -4 0 5 -4 9 -10 9 -6 0 -10 -35 -10
-85 0 -68 3 -85 15 -85 11 0 15 16 17 66 2 51 7 70 21 78 34 21 52 -4 55 -78
2 -50 6 -66 17 -66 19 0 21 128 3 152 -19 24 -50 29 -80 13z"/>
<path d="M1151 7321 c-16 -16 -21 -18 -21 -6 0 8 -7 15 -15 15 -12 0 -15 -16
-15 -85 0 -69 3 -85 15 -85 10 0 15 11 16 38 2 58 13 86 39 99 14 7 25 18 25
24 0 21 -23 21 -44 0z"/>
<path d="M1250 7327 c-54 -27 -64 -119 -17 -152 35 -25 92 -19 116 11 57 73
-20 182 -99 141z m76 -42 c20 -30 11 -81 -17 -96 -57 -30 -101 53 -57 109 17
20 56 14 74 -13z"/>
<path d="M1590 7327 c-33 -17 -52 -55 -46 -96 7 -48 32 -71 78 -71 42 0 88 34
70 52 -7 7 -17 3 -31 -11 -26 -26 -45 -27 -71 -1 -30 30 -17 40 51 40 53 0 59
2 59 21 0 23 -51 79 -72 79 -7 0 -24 -6 -38 -13z m64 -33 c26 -25 19 -34 -29
-34 -46 0 -58 13 -33 38 17 17 44 15 62 -4z"/>
<path d="M1782 7324 c-12 -8 -22 -10 -22 -5 0 6 -7 11 -15 11 -12 0 -15 -16
-15 -85 0 -69 3 -85 15 -85 11 0 15 12 15 51 0 60 13 89 40 89 13 0 20 7 20
20 0 24 -8 25 -38 4z"/>
<path d="M599 6593 c-58 -24 -59 -34 -59 -461 0 -388 0 -389 23 -423 48 -73
-4 -69 924 -69 563 0 841 3 860 11 15 5 41 22 56 37 27 25 29 26 39 9 5 -11
29 -27 52 -38 38 -17 71 -19 444 -19 l403 0 -3 -117 -3 -118 -47 -3 c-27 -2
-48 -5 -48 -6 0 -2 23 -63 50 -136 27 -73 50 -138 50 -146 0 -12 -199 -14
-1365 -14 -941 0 -1371 -3 -1385 -10 -48 -26 -50 -43 -50 -458 0 -388 0 -389
23 -423 12 -19 38 -42 57 -51 33 -17 119 -18 1373 -18 l1337 0 0 -80 0 -79
-67 -3 -67 -3 -49 -277 c-27 -152 -47 -284 -44 -293 5 -12 26 -15 112 -15
l105 0 0 -64 0 -65 -49 -3 -49 -3 62 -173 62 -172 65 169 66 169 -49 6 -48 7
0 64 0 65 65 0 c43 0 67 4 70 13 10 26 102 562 98 570 -2 4 -53 7 -114 7
l-109 0 0 80 0 79 324 3 c454 4 416 -40 416 491 0 404 -3 432 -50 457 -16 9
-117 12 -356 11 -223 -1 -334 2 -334 8 0 6 22 71 50 144 28 73 50 136 50 140
0 3 -21 7 -47 9 l-48 3 -3 117 -3 117 325 3 c454 4 416 -40 416 491 0 402 -3
432 -49 456 -14 8 -256 11 -812 11 l-792 0 -23 -21 -22 -21 -29 21 c-28 21
-31 21 -902 24 -651 1 -881 -1 -902 -10z m1791 -33 c19 -19 20 -33 20 -426 l0
-406 -29 -29 -29 -29 -860 0 c-851 0 -860 0 -885 20 -15 12 -31 38 -37 58 -13
50 -13 725 0 774 6 21 18 42 28 47 11 7 330 11 895 11 864 0 877 0 897 -20z
m1687 -2 l23 -21 0 -405 0 -404 -29 -29 -29 -29 -767 0 -767 0 -34 34 -34 34
0 396 0 397 25 24 24 25 782 0 783 0 23 -22z m3 -1500 c19 -21 20 -33 20 -426
l0 -404 -31 -29 -31 -29 -1700 0 c-1696 0 -1700 0 -1729 20 -16 12 -33 36 -39
58 -13 50 -13 725 0 774 6 21 18 42 28 47 11 7 613 10 1739 11 l1722 0 21 -22z
m-490 -1110 c0 -6 -20 -125 -45 -265 -25 -139 -45 -255 -45 -258 0 -3 -86 -5
-191 -5 l-191 0 6 28 c3 15 24 131 46 257 23 127 43 236 45 243 6 17 375 18
375 0z"/>
<path d="M1070 6217 c-47 -37 -68 -129 -36 -156 33 -28 117 -5 133 35 10 27
-6 27 -31 1 -47 -50 -105 -24 -90 40 15 63 94 101 109 53 3 -11 10 -20 15 -20
17 0 19 17 4 38 -17 25 -78 30 -104 9z"/>
<path d="M1662 6178 c-16 -29 -40 -70 -52 -90 -17 -29 -19 -38 -8 -38 8 0 20
11 26 25 10 21 19 25 52 25 36 0 40 -2 40 -25 0 -16 6 -25 15 -25 12 0 14 8 9
38 -3 20 -8 59 -12 87 -10 70 -31 71 -70 3z m47 -40 c1 -13 -7 -18 -24 -18
-30 0 -30 3 -8 41 15 26 19 27 25 12 3 -10 7 -26 7 -35z"/>
<path d="M1797 6152 c-9 -42 -17 -83 -17 -91 0 -24 25 -4 30 25 4 25 11 29 50
36 46 8 80 36 80 67 0 29 -22 41 -75 41 l-52 0 -16 -78z m101 49 c8 -5 12 -17
10 -27 -2 -14 -13 -20 -45 -22 -35 -3 -42 0 -38 12 3 9 7 23 10 31 5 16 42 20
63 6z"/>
<path d="M1970 6173 c-6 -32 -15 -73 -20 -90 -6 -26 -5 -33 6 -33 14 0 15 5
34 95 6 28 13 58 16 68 3 11 0 17 -10 17 -10 0 -18 -18 -26 -57z"/>
<path d="M1243 6179 c-52 -19 -74 -112 -31 -128 36 -13 74 6 93 46 28 58 -6
103 -62 82z m43 -34 c3 -8 2 -27 -3 -42 -8 -22 -16 -28 -39 -28 -26 0 -29 3
-27 28 1 16 7 35 14 43 15 18 48 18 55 -1z"/>
<path d="M1340 6118 c-11 -60 -7 -85 10 -58 6 8 10 24 10 35 0 27 27 65 46 65
8 0 14 4 14 9 0 5 -15 9 -34 9 -33 0 -34 -1 -46 -60z"/>
<path d="M1443 6165 c-13 -9 -25 -32 -29 -52 -6 -30 -3 -39 15 -54 18 -14 27
-16 51 -7 17 5 33 14 36 20 9 15 -5 23 -18 10 -20 -20 -58 -15 -58 8 0 17 7
20 44 20 48 0 58 11 45 48 -10 26 -53 30 -86 7z m65 -22 c2 -9 -8 -13 -33 -13
-33 0 -36 2 -25 15 15 18 51 16 58 -2z"/>
<path d="M2892 6368 c-21 -6 -40 -20 -52 -41 -23 -38 -26 -109 -6 -126 20 -17
138 -21 132 -5 -3 7 4 29 15 50 23 46 24 72 4 101 -18 25 -49 32 -93 21z m66
-30 c28 -28 3 -103 -35 -103 -10 0 -17 -6 -15 -12 4 -22 -46 -15 -58 8 -34 62
60 155 108 107z"/>
<path d="M3190 6350 c-28 -28 -26 -58 5 -70 14 -6 36 -14 50 -20 22 -8 24 -13
15 -30 -15 -28 -76 -28 -85 0 -8 25 -25 26 -25 1 0 -27 27 -45 67 -44 40 1 73
27 73 58 0 28 -15 41 -58 50 -27 5 -33 11 -30 28 4 28 57 37 70 13 12 -22 28
-20 28 3 0 36 -77 44 -110 11z"/>
<path d="M3422 6318 c-16 -29 -40 -70 -52 -90 -17 -29 -19 -38 -8 -38 8 0 20
11 26 25 10 21 19 25 52 25 36 0 40 -2 40 -25 0 -16 6 -25 15 -25 12 0 14 8 9
38 -3 20 -8 59 -12 87 -10 70 -31 71 -70 3z m47 -40 c1 -13 -7 -18 -24 -18
-30 0 -30 3 -8 41 15 26 19 27 25 12 3 -10 7 -26 7 -35z"/>
<path d="M3557 6292 c-9 -42 -17 -83 -17 -91 0 -24 25 -4 30 25 4 25 11 29 50
36 46 8 80 36 80 67 0 29 -22 41 -75 41 l-52 0 -16 -78z m101 49 c8 -5 12 -17
10 -27 -2 -14 -13 -20 -45 -22 -35 -3 -42 0 -38 12 3 9 7 23 10 31 5 16 42 20
63 6z"/>
<path d="M3730 6313 c-6 -32 -15 -73 -20 -90 -6 -26 -5 -33 6 -33 14 0 15 5
34 95 6 28 13 58 16 68 3 11 0 17 -10 17 -10 0 -18 -18 -26 -57z"/>
<path d="M3054 6315 c-55 -23 -68 -110 -19 -129 41 -15 99 40 93 90 -5 40 -35
56 -74 39z m46 -41 c0 -39 -18 -64 -45 -64 -20 0 -25 5 -25 26 0 39 18 64 45
64 20 0 25 -5 25 -26z"/>
<path d="M2771 6043 c-5 -21 -12 -54 -16 -73 -4 -19 -9 -43 -11 -52 -5 -16 3
-18 65 -18 41 0 71 4 71 10 0 6 -25 10 -56 10 -47 0 -55 3 -50 16 3 9 6 22 6
30 0 10 13 14 49 14 28 0 53 5 56 10 4 6 -13 10 -44 10 -52 0 -59 7 -45 44 5
12 20 16 60 16 30 0 54 5 54 10 0 6 -28 10 -65 10 l-64 0 -10 -37z"/>
<path d="M3537 6074 c-8 -8 1 -24 14 -24 5 0 9 7 9 15 0 15 -12 20 -23 9z"/>
<path d="M3070 6055 c0 -7 -8 -19 -17 -25 -12 -7 -14 -13 -7 -16 8 -3 9 -16 3
-42 -13 -56 -11 -72 9 -72 14 0 17 9 17 50 0 37 5 53 20 64 11 9 14 16 8 16
-7 0 -13 9 -13 20 0 11 -4 20 -10 20 -5 0 -10 -7 -10 -15z"/>
<path d="M3613 6029 c-52 -19 -74 -112 -31 -128 36 -13 74 6 93 46 28 58 -6
103 -62 82z m43 -34 c3 -8 2 -27 -3 -42 -8 -22 -16 -28 -39 -28 -26 0 -29 3
-27 28 1 16 7 35 14 43 15 18 48 18 55 -1z"/>
<path d="M2936 5999 c15 -31 15 -32 -17 -65 -22 -23 -28 -34 -18 -34 9 0 24 9
34 20 10 11 22 20 26 20 4 0 11 -9 14 -20 3 -11 13 -20 21 -20 17 0 17 8 0 40
-13 22 -12 27 11 54 15 18 21 32 14 34 -6 2 -20 -6 -30 -19 l-18 -23 -12 22
c-6 12 -18 22 -27 22 -13 0 -12 -4 2 -31z"/>
<path d="M3133 6015 c-13 -9 -25 -32 -29 -52 -6 -30 -3 -39 15 -54 18 -14 27
-16 51 -7 17 5 33 14 36 20 9 15 -5 23 -18 10 -20 -20 -58 -15 -58 8 0 17 7
20 44 20 48 0 58 11 45 48 -10 26 -53 30 -86 7z m65 -22 c2 -9 -8 -13 -33 -13
-33 0 -36 2 -25 15 15 18 51 16 58 -2z"/>
<path d="M3251 5978 c-13 -60 -14 -78 -2 -78 5 0 14 22 21 50 8 34 18 51 32
56 30 9 38 -6 27 -55 -10 -46 -6 -62 12 -44 6 6 12 35 13 65 l1 53 -46 1 -46
1 -12 -49z"/>
<path d="M3400 6009 c-16 -29 -6 -46 30 -54 17 -4 29 -12 27 -18 -5 -15 -57
-22 -57 -8 0 6 -4 11 -10 11 -18 0 -11 -29 9 -40 24 -13 66 2 80 28 13 24 3
39 -32 47 -15 4 -27 13 -27 21 0 18 47 19 53 2 2 -7 8 -10 12 -6 4 4 5 14 2
23 -10 24 -74 20 -87 -6z"/>
<path d="M3527 6023 c-2 -5 -7 -26 -11 -48 -4 -22 -9 -48 -12 -57 -3 -11 0
-18 9 -18 9 0 17 15 21 43 4 23 9 52 13 65 5 20 -10 32 -20 15z"/>
<path d="M3711 5978 c-13 -60 -14 -78 -2 -78 5 0 14 22 21 50 8 34 18 51 32
56 30 9 38 -6 27 -55 -10 -46 -6 -62 12 -44 6 6 12 35 13 65 l1 53 -46 1 -46
1 -12 -49z"/>
<path d="M1505 4793 c-9 -43 -18 -84 -20 -90 -3 -7 2 -13 10 -13 9 0 18 20 25
58 6 31 13 62 14 67 3 8 8 -18 19 -105 5 -37 33 -17 66 45 19 35 36 63 38 62
1 -2 -1 -19 -6 -38 -21 -81 -22 -89 -8 -89 15 0 55 165 44 177 -13 13 -38 -9
-61 -54 -48 -94 -52 -95 -60 -15 -6 61 -10 72 -26 72 -15 0 -22 -14 -35 -77z"/>
<path d="M1725 4858 c-5 -13 -35 -155 -35 -164 0 -2 27 -4 60 -4 33 0 60 4 60
10 0 6 -20 10 -45 10 -25 0 -45 3 -45 8 0 4 7 34 15 67 17 73 18 85 5 85 -6 0
-13 -6 -15 -12z"/>
<path d="M1891 4857 c-28 -14 -48 -43 -38 -53 4 -4 15 2 23 15 19 26 57 25 62
-2 2 -11 -8 -23 -29 -35 -39 -20 -89 -66 -89 -81 0 -7 24 -11 60 -11 33 0 60
4 60 10 0 6 -21 10 -47 10 -47 1 -48 1 -27 18 12 9 36 25 53 34 17 9 36 29 43
44 11 23 10 28 -11 45 -27 22 -29 22 -60 6z"/>
<path d="M2071 4833 c-5 -21 -12 -54 -16 -73 -4 -19 -9 -43 -11 -52 -3 -11 0
-18 9 -18 9 0 17 14 21 35 6 28 11 35 31 35 30 0 77 18 87 33 14 21 9 65 -8
71 -9 3 -35 6 -59 6 -43 0 -45 -1 -54 -37z m99 7 c25 -16 -1 -45 -44 -48 -38
-3 -40 -1 -30 36 7 24 45 30 74 12z"/>
<path d="M2231 4833 c-5 -21 -12 -54 -16 -73 -4 -19 -9 -43 -11 -52 -3 -11 0
-18 8 -18 9 0 20 28 31 83 20 96 20 97 7 97 -5 0 -14 -17 -19 -37z"/>
<path d="M2570 4855 c0 -8 4 -15 9 -15 5 0 11 7 15 15 3 9 0 15 -9 15 -8 0
-15 -7 -15 -15z"/>
<path d="M3194 4842 c-5 -25 -9 -27 -38 -24 -44 5 -78 -35 -74 -87 l3 -36 50
0 50 0 11 51 c23 103 25 124 14 124 -6 0 -13 -13 -16 -28z m-20 -58 c10 -27
-16 -69 -44 -69 -21 0 -25 4 -23 28 1 16 7 35 14 43 15 19 45 18 53 -2z"/>
<path d="M2270 4765 c-6 -30 -8 -59 -5 -65 4 -6 27 -10 53 -8 45 3 46 4 54 43
4 22 10 50 13 63 4 15 1 22 -10 22 -8 0 -15 -9 -15 -20 0 -39 -28 -90 -49 -90
-23 0 -25 14 -12 73 7 28 6 37 -4 37 -8 0 -18 -22 -25 -55z"/>
<path d="M2421 4794 c-12 -15 -21 -41 -21 -60 0 -28 5 -35 25 -40 14 -3 32 -4
40 0 23 8 18 -11 -7 -28 -16 -11 -26 -12 -40 -5 -27 14 -38 1 -14 -17 41 -30
90 7 106 79 6 29 13 61 16 73 5 19 1 21 -40 22 -37 2 -48 -2 -65 -24z m73 -10
c10 -27 -16 -69 -44 -69 -21 0 -25 4 -23 28 1 16 7 35 14 43 15 19 45 18 53
-2z"/>
<path d="M2550 4760 c-7 -33 -10 -63 -6 -67 10 -10 14 -1 30 65 11 49 12 62 1
62 -7 0 -18 -25 -25 -60z"/>
<path d="M2616 4811 c-2 -3 -6 -24 -10 -46 -4 -22 -9 -48 -12 -57 -3 -11 0
-18 9 -18 9 0 17 15 21 42 8 50 21 68 48 68 19 0 20 -4 13 -55 -4 -35 -3 -55
4 -55 12 0 35 105 26 120 -6 10 -93 11 -99 1z"/>
<path d="M2830 4800 c-11 -20 3 -30 15 -10 9 15 55 12 55 -4 0 -8 -16 -16 -40
-20 -31 -5 -44 -13 -52 -32 -10 -22 -9 -28 6 -39 12 -9 26 -11 41 -5 13 5 33
6 45 3 19 -5 21 -3 16 13 -3 11 -2 34 4 52 13 48 4 62 -41 62 -28 0 -41 -5
-49 -20z m60 -58 c0 -14 -23 -32 -42 -32 -20 0 -25 26 -5 33 20 8 47 8 47 -1z"/>
<path d="M2966 4811 c-2 -3 -6 -24 -10 -46 -4 -22 -9 -48 -12 -57 -3 -11 0
-18 9 -18 9 0 17 15 21 42 8 50 21 68 48 68 19 0 20 -4 13 -55 -4 -35 -3 -55
4 -55 12 0 35 105 26 120 -6 10 -93 11 -99 1z"/>
<path d="M1102 4564 c-27 -19 -52 -65 -52 -97 0 -71 87 -95 142 -40 38 38 49
104 23 133 -22 24 -81 27 -113 4z m86 -16 c36 -36 -6 -128 -58 -128 -38 0 -54
22 -47 68 10 58 71 94 105 60z"/>
<path d="M1276 4498 c8 -46 14 -86 14 -90 0 -5 6 -8 14 -8 12 0 37 39 113 173
2 4 -3 7 -11 7 -8 0 -31 -31 -53 -72 -34 -64 -38 -69 -44 -47 -4 13 -7 38 -8
56 -1 41 -10 63 -26 63 -10 0 -9 -17 1 -82z"/>
<path d="M1451 4554 c-12 -15 -21 -30 -21 -35 0 -12 40 -36 73 -44 15 -4 27
-13 27 -19 0 -37 -78 -52 -87 -16 -6 22 -33 28 -33 7 0 -7 6 -22 14 -32 25
-35 118 -16 129 27 9 31 -2 46 -41 59 -49 15 -58 25 -42 44 16 19 59 20 66 0
7 -18 34 -20 34 -2 0 23 -23 37 -61 37 -29 0 -43 -6 -58 -26z"/>
<path d="M1665 4503 c-9 -43 -18 -84 -20 -90 -3 -7 2 -13 10 -13 9 0 18 20 25
58 6 31 13 62 14 67 3 8 8 -18 19 -105 5 -37 33 -17 66 45 19 35 36 63 38 62
1 -2 -1 -19 -6 -38 -21 -81 -22 -89 -8 -89 15 0 55 165 44 177 -13 13 -38 -9
-61 -54 -48 -94 -52 -95 -60 -15 -6 61 -10 72 -26 72 -15 0 -22 -14 -35 -77z"/>
<path d="M2145 4568 c-2 -7 -9 -40 -15 -73 -6 -33 -14 -68 -16 -77 -3 -11 0
-18 9 -18 9 0 17 15 21 42 8 49 21 68 47 68 22 0 25 -25 10 -78 -8 -25 -7 -32
4 -32 15 0 41 103 29 121 -3 6 -21 9 -40 7 -31 -4 -32 -3 -27 24 6 28 -13 41
-22 16z"/>
<path d="M2567 4574 c-8 -8 1 -24 14 -24 5 0 9 7 9 15 0 15 -12 20 -23 9z"/>
<path d="M3025 4568 c-5 -16 -35 -155 -35 -162 0 -4 22 -6 50 -6 66 0 109 35
117 98 8 59 -14 82 -79 82 -30 0 -50 -5 -53 -12z m86 -18 c29 -16 26 -74 -6
-105 -30 -31 -89 -36 -81 -7 2 9 7 33 11 52 4 19 9 43 11 53 6 19 35 22 65 7z"/>
<path d="M3287 4574 c-8 -8 1 -24 14 -24 5 0 9 7 9 15 0 15 -12 20 -23 9z"/>
<path d="M2044 4529 c-42 -15 -65 -69 -48 -113 10 -25 70 -21 88 6 20 28 12
36 -13 14 -29 -26 -56 -17 -54 18 1 15 7 34 14 42 13 16 49 19 49 4 0 -5 7
-10 15 -10 16 0 19 9 7 26 -11 17 -35 22 -58 13z"/>
<path d="M1883 4515 c-13 -9 -25 -32 -29 -52 -6 -30 -3 -39 15 -54 18 -14 27
-16 51 -7 17 5 33 14 36 20 9 15 -5 23 -18 10 -20 -20 -58 -15 -58 8 0 17 7
20 44 20 48 0 58 11 45 48 -10 26 -53 30 -86 7z m65 -22 c2 -9 -8 -13 -33 -13
-33 0 -36 2 -25 15 15 18 51 16 58 -2z"/>
<path d="M2280 4510 c-11 -20 3 -30 15 -10 9 15 55 12 55 -4 0 -8 -16 -16 -40
-20 -31 -5 -44 -13 -52 -32 -10 -22 -9 -28 6 -39 12 -9 26 -11 41 -5 13 5 33
6 45 3 19 -5 21 -3 16 13 -3 11 -2 34 4 52 13 48 4 62 -41 62 -28 0 -41 -5
-49 -20z m60 -58 c0 -14 -23 -32 -42 -32 -20 0 -25 26 -5 33 20 8 47 8 47 -1z"/>
<path d="M2416 4521 c-2 -3 -6 -24 -10 -46 -4 -22 -9 -48 -12 -57 -3 -11 0
-18 9 -18 9 0 17 15 21 42 8 50 21 68 48 68 19 0 20 -4 13 -55 -4 -35 -3 -55
4 -55 12 0 35 105 26 120 -6 10 -93 11 -99 1z"/>
<path d="M2557 4523 c-2 -5 -7 -26 -11 -48 -4 -22 -9 -48 -12 -57 -3 -11 0
-18 9 -18 9 0 17 15 21 43 4 23 9 52 13 65 5 20 -10 32 -20 15z"/>
<path d="M2610 4509 c-16 -29 -6 -46 30 -54 17 -4 29 -12 27 -18 -5 -15 -57
-22 -57 -8 0 6 -4 11 -10 11 -18 0 -11 -29 9 -40 24 -13 66 2 80 28 13 24 3
39 -32 47 -15 4 -27 13 -27 21 0 18 47 19 53 2 2 -7 8 -10 12 -6 4 4 5 14 2
23 -10 24 -74 20 -87 -6z"/>
<path d="M2736 4521 c-2 -3 -6 -24 -10 -46 -4 -22 -9 -48 -12 -57 -3 -11 0
-18 9 -18 10 0 17 15 21 44 7 47 27 72 50 63 11 -5 12 -15 4 -52 -9 -43 -6
-66 8 -53 3 4 11 28 18 55 9 37 17 49 34 51 25 4 27 -9 13 -70 -7 -29 -6 -38
4 -38 15 0 41 103 30 119 -6 10 -164 12 -169 2z"/>
<path d="M3180 4468 c-11 -60 -7 -85 10 -58 6 8 10 24 10 35 0 27 27 65 46 65
8 0 14 4 14 9 0 5 -15 9 -34 9 -33 0 -34 -1 -46 -60z"/>
<path d="M3277 4523 c-2 -5 -7 -26 -11 -48 -4 -22 -9 -48 -12 -57 -3 -11 0
-18 9 -18 9 0 17 15 21 43 4 23 9 52 13 65 5 20 -10 32 -20 15z"/>
<path d="M3325 4483 c9 -68 15 -83 29 -83 7 0 18 10 24 23 6 12 23 41 37 65
19 31 22 42 12 42 -8 0 -25 -20 -38 -44 -27 -52 -39 -50 -39 5 0 29 -4 39 -16
39 -12 0 -14 -8 -9 -47z"/>
<path d="M3463 4508 c-45 -50 -33 -110 21 -110 15 0 38 9 49 21 23 23 9 29
-22 9 -22 -14 -51 -4 -51 17 0 11 12 15 50 15 46 0 50 2 50 23 0 49 -61 65
-97 25z m67 -13 c0 -10 -10 -15 -30 -15 -47 0 -35 27 13 29 9 1 17 -6 17 -14z"/>
<path d="M3596 4521 c-2 -3 -6 -24 -10 -46 -4 -22 -9 -48 -12 -57 -3 -11 0
-18 9 -18 8 0 17 18 23 48 6 34 15 50 32 57 12 5 22 13 22 17 0 8 -59 7 -64
-1z"/>
<path d="M3334 3755 c-9 -14 -13 -29 -9 -33 4 -4 14 3 22 16 9 12 26 22 39 22
19 0 24 -5 24 -25 0 -19 -10 -31 -35 -46 -34 -21 -55 -46 -55 -68 0 -7 24 -11
60 -11 33 0 60 4 60 10 0 6 -23 10 -51 10 -57 0 -57 8 1 45 43 27 56 55 40 85
-16 31 -75 28 -96 -5z"/>
<path d="M7582 7370 c-49 -48 -48 -139 1 -188 49 -48 151 -23 168 41 10 38
-23 37 -37 -2 -20 -52 -104 -49 -124 4 -29 75 7 149 71 147 22 0 39 -8 48 -21
15 -24 41 -28 41 -7 0 27 -50 56 -96 56 -34 0 -48 -6 -72 -30z"/>
<path d="M8667 7383 c-4 -3 -7 -17 -7 -30 0 -14 -6 -23 -15 -23 -8 0 -15 -4
-15 -10 0 -5 7 -10 15 -10 12 0 15 -13 15 -59 0 -78 6 -91 41 -91 33 0 39 19
9 27 -17 5 -20 14 -20 64 0 52 2 59 20 59 11 0 20 5 20 10 0 6 -9 10 -20 10
-16 0 -20 7 -20 30 0 29 -9 38 -23 23z"/>
<path d="M7830 7327 c-54 -27 -64 -119 -17 -152 35 -25 92 -19 116 11 57 73
-20 182 -99 141z m76 -42 c20 -30 11 -81 -17 -96 -57 -30 -101 53 -57 109 17
20 56 14 74 -13z"/>
<path d="M8032 7324 c-12 -8 -22 -10 -22 -5 0 6 -7 11 -15 11 -12 0 -15 -16
-15 -85 0 -69 3 -85 15 -85 12 0 15 13 15 59 0 41 5 65 16 75 38 39 64 10 64
-71 0 -48 3 -63 15 -63 11 0 15 16 17 66 3 70 18 94 52 81 13 -5 16 -21 16
-77 0 -56 3 -70 15 -70 12 0 15 16 15 80 0 75 -2 81 -24 91 -19 9 -31 8 -54
-3 -24 -13 -32 -13 -47 -1 -24 17 -36 17 -63 -3z"/>
<path d="M8337 7334 c-4 -4 -20 -7 -37 -6 l-30 1 0 -121 c0 -91 3 -119 13
-116 6 3 13 20 15 39 3 34 3 34 46 31 37 -3 46 0 65 23 28 36 27 87 -1 119
-24 26 -60 41 -71 30z m52 -55 c8 -15 11 -36 7 -52 -16 -65 -96 -50 -96 18 0
64 59 87 89 34z"/>
<path d="M8801 7329 c-36 -14 -50 -39 -51 -85 0 -52 31 -84 82 -84 34 0 68 24
68 48 0 18 -11 15 -37 -10 -22 -21 -26 -21 -51 -7 -15 8 -28 22 -30 32 -3 15
6 17 62 17 36 0 66 2 66 5 0 20 -32 75 -48 84 -24 13 -29 13 -61 0z m57 -31
c25 -25 13 -38 -33 -38 -33 0 -45 4 -45 15 0 29 56 45 78 23z"/>
<path d="M8460 7264 c0 -86 10 -104 58 -104 21 0 43 5 50 12 9 9 12 9 12 0 0
-7 7 -12 15 -12 12 0 15 16 15 85 0 78 -2 85 -20 85 -18 0 -20 -7 -20 -65 0
-60 -2 -66 -25 -77 -40 -18 -55 3 -55 78 0 50 -3 64 -15 64 -12 0 -15 -14 -15
-66z"/>
<path d="M7470 7010 c21 -14 2570 -14 2570 0 0 7 -437 10 -1292 10 -839 0
-1288 -4 -1278 -10z"/>
<path d="M8638 6491 l-33 -29 -3 -399 c-2 -383 -2 -399 18 -431 38 -61 69 -72
213 -72 l127 0 0 -60 0 -60 -65 0 c-36 0 -65 -1 -65 -2 0 -2 -23 -129 -50
-283 -27 -154 -50 -286 -50 -292 0 -10 30 -13 115 -13 l115 0 0 -99 0 -100
-49 -3 -48 -3 58 -155 c33 -85 59 -161 59 -167 0 -10 -132 -13 -629 -13 l-629
0 -26 -30 c-13 -17 -28 -49 -31 -73 -4 -23 -5 -204 -3 -402 3 -354 3 -361 25
-391 48 -67 13 -64 835 -64 688 0 746 1 777 18 68 34 76 55 79 228 l4 154 129
0 c71 0 129 -1 129 -3 0 -2 -9 -52 -20 -112 -11 -60 -20 -115 -20 -122 0 -10
44 -13 209 -13 208 0 209 0 214 23 3 12 13 68 23 125 l17 102 129 0 128 0 0
-44 0 -44 128 48 127 48 5 -158 c6 -177 13 -198 81 -232 31 -17 89 -18 777
-18 724 0 744 1 782 20 63 32 70 56 70 240 l0 160 125 0 125 0 0 -170 c0 -105
4 -170 10 -170 6 0 11 134 12 368 l3 367 113 3 112 3 0 -96 c0 -93 1 -98 29
-126 l29 -29 482 0 482 0 29 29 29 29 0 212 0 212 -29 29 -29 29 -482 0 -482
0 -29 -29 c-28 -29 -29 -32 -29 -136 l0 -107 -125 4 -125 3 0 -202 0 -203
-125 0 -125 0 0 231 0 231 -29 29 -29 29 -792 0 c-524 0 -798 -3 -811 -10 -43
-24 -49 -57 -49 -273 l0 -205 -127 48 -128 48 -3 -54 -3 -54 -119 0 c-140 0
-129 -15 -100 145 11 60 20 112 20 117 0 4 -94 8 -210 8 -209 0 -210 0 -215
-22 -2 -13 -12 -63 -20 -113 -9 -49 -18 -100 -21 -112 -4 -22 -7 -23 -139 -23
l-135 0 0 194 c0 222 -3 247 -38 281 -24 25 -27 25 -183 25 -121 0 -159 3
-159 13 0 6 26 82 59 167 l58 155 -48 3 -49 3 0 100 0 99 65 0 c36 0 65 1 65
3 0 1 23 128 50 282 27 154 50 286 50 293 0 9 -30 12 -115 12 l-115 0 0 60 0
60 596 0 c420 0 602 3 617 11 12 6 34 23 49 36 26 24 26 25 37 5 6 -11 26 -27
45 -36 30 -14 111 -16 781 -16 827 0 796 -2 836 64 18 29 19 57 19 424 0 419
-2 436 -49 462 -13 7 -287 10 -809 10 l-789 0 -25 -23 -25 -23 -27 23 -27 23
-789 0 -790 0 -32 -29z m1623 -10 l24 -19 3 -396 c3 -441 3 -444 -63 -472 -50
-21 -1479 -21 -1529 0 -68 28 -66 17 -66 459 l0 398 25 24 24 25 779 0 c753 0
781 -1 803 -19z m1673 8 c14 -7 30 -25 36 -42 6 -19 10 -167 10 -399 0 -412
-1 -422 -65 -452 -30 -15 -114 -16 -784 -14 l-751 3 -32 33 -33 32 0 401 0
401 28 24 28 24 769 0 c554 0 776 -3 794 -11z m-2712 -1074 c2 -3 -17 -125
-43 -272 -27 -148 -49 -269 -49 -270 0 -5 -367 -3 -372 2 -2 3 17 125 43 272
27 148 49 269 49 271 0 4 367 2 372 -3z m4609 -1004 c17 -21 19 -41 19 -223 0
-198 0 -199 -25 -223 l-24 -25 -465 0 c-255 0 -472 3 -481 6 -38 15 -45 56
-44 246 0 101 4 191 8 202 18 45 29 46 524 43 l469 -2 19 -24z m-4502 -147
c20 -26 21 -37 21 -426 l0 -400 -29 -29 -29 -29 -761 0 c-568 0 -767 3 -786
12 -54 24 -55 34 -55 458 l0 391 25 24 24 25 785 0 785 0 20 -26z m2912 7 l24
-19 3 -402 3 -401 -35 -35 -34 -34 -765 0 c-756 0 -765 0 -790 21 -45 35 -49
67 -45 466 l3 371 24 26 24 26 783 0 c755 0 783 -1 805 -19z m-2192 -478 c-27
-148 -49 -269 -49 -270 0 -2 -86 -3 -191 -3 -176 0 -190 1 -185 18 2 9 23 125
46 257 23 132 43 246 46 253 2 9 50 12 192 12 l189 0 -48 -267z"/>
<path d="M8952 6288 c-21 -6 -40 -20 -52 -41 -23 -38 -26 -109 -6 -126 20 -17
138 -21 132 -5 -3 7 4 29 15 50 23 46 24 72 4 101 -18 25 -49 32 -93 21z m66
-30 c28 -28 3 -103 -35 -103 -10 0 -17 -6 -15 -12 4 -22 -46 -15 -58 8 -34 62
60 155 108 107z"/>
<path d="M9250 6270 c-28 -28 -26 -58 5 -70 14 -6 36 -14 50 -20 22 -8 24 -13
15 -30 -15 -28 -76 -28 -85 0 -8 25 -25 26 -25 1 0 -27 27 -45 67 -44 40 1 73
27 73 58 0 28 -15 41 -58 50 -27 5 -33 11 -30 28 4 28 57 37 70 13 12 -22 28
-20 28 3 0 36 -77 44 -110 11z"/>
<path d="M9497 6253 c-56 -90 -79 -134 -72 -141 3 -4 16 5 27 21 25 34 88 40
88 8 0 -21 17 -37 27 -27 4 3 1 44 -6 91 -15 97 -27 106 -64 48z m33 -38 c0
-28 -4 -35 -20 -35 -24 0 -25 13 -4 45 21 33 24 32 24 -10z"/>
<path d="M10043 6260 c-3 -11 -8 -20 -12 -20 -3 0 -7 -29 -8 -65 -3 -59 -1
-65 17 -65 11 0 20 5 20 10 0 6 -5 10 -10 10 -16 0 -1 73 19 88 12 10 13 15 3
21 -7 4 -10 15 -6 24 4 10 1 17 -6 17 -6 0 -14 -9 -17 -20z"/>
<path d="M9114 6235 c-55 -23 -68 -110 -19 -129 41 -15 99 40 93 90 -5 40 -35
56 -74 39z m46 -41 c0 -39 -18 -64 -45 -64 -20 0 -25 5 -25 26 0 39 18 64 45
64 20 0 25 -5 25 -26z"/>
<path d="M9628 6230 c-25 -15 -42 -74 -28 -101 10 -17 18 -20 45 -16 27 5 33
3 28 -10 -8 -21 -45 -32 -65 -19 -24 15 -37 -3 -14 -20 21 -15 62 -10 85 11
12 12 41 111 41 146 0 18 -64 24 -92 9z m60 -41 c4 -30 -20 -59 -49 -59 -22 0
-26 38 -8 71 15 30 53 21 57 -12z"/>
<path d="M9763 6218 c-45 -50 -33 -110 21 -110 15 0 38 9 49 21 23 23 9 29
-22 9 -22 -14 -51 -4 -51 17 0 11 12 15 50 15 46 0 50 2 50 23 0 49 -61 65
-97 25z m67 -13 c0 -10 -10 -15 -30 -15 -47 0 -35 27 13 29 9 1 17 -6 17 -14z"/>
<path d="M9881 6188 c-13 -60 -14 -78 -2 -78 5 0 14 22 21 50 8 34 18 51 32
56 30 9 38 -6 27 -55 -10 -46 -6 -62 12 -44 6 6 12 35 13 65 l1 53 -46 1 -46
1 -12 -49z"/>
<path d="M8947 5922 c-9 -42 -17 -83 -17 -90 0 -8 20 -12 65 -12 37 0 65 4 65
10 0 6 -22 10 -50 10 -51 0 -58 7 -44 44 4 12 20 16 55 16 27 0 49 5 49 10 0
6 -21 10 -46 10 -44 0 -45 1 -42 28 3 25 7 27 53 30 80 5 79 22 -1 22 l-71 0
-16 -78z"/>
<path d="M9720 5985 c0 -8 4 -15 9 -15 5 0 11 7 15 15 3 9 0 15 -9 15 -8 0
-15 -7 -15 -15z"/>
<path d="M9253 5970 c-3 -11 -8 -20 -12 -20 -3 0 -7 -29 -8 -65 -3 -59 -1 -65
17 -65 11 0 20 5 20 10 0 6 -5 10 -10 10 -16 0 -1 73 19 88 12 10 13 15 3 21
-7 4 -10 15 -6 24 4 10 1 17 -6 17 -6 0 -14 -9 -17 -20z"/>
<path d="M9794 5945 c-55 -23 -68 -110 -19 -129 41 -15 99 40 93 90 -5 40 -35
56 -74 39z m46 -41 c0 -39 -18 -64 -45 -64 -20 0 -25 5 -25 26 0 39 18 64 45
64 20 0 25 -5 25 -26z"/>
<path d="M9115 5933 c17 -41 15 -51 -10 -81 -31 -37 -14 -44 22 -10 l24 22 6
-22 c3 -13 13 -22 24 -22 18 0 18 2 2 35 -17 35 -17 35 12 65 33 34 14 42 -21
9 l-22 -21 -7 21 c-3 12 -13 21 -22 21 -10 0 -13 -5 -8 -17z"/>
<path d="M9323 5935 c-13 -9 -25 -32 -29 -52 -6 -30 -3 -39 15 -54 18 -14 27
-16 51 -7 17 5 33 14 36 20 9 15 -5 23 -18 10 -20 -20 -58 -15 -58 8 0 17 7
20 44 20 48 0 58 11 45 48 -10 26 -53 30 -86 7z m65 -22 c2 -9 -8 -13 -33 -13
-33 0 -36 2 -25 15 15 18 51 16 58 -2z"/>
<path d="M9441 5898 c-13 -60 -14 -78 -2 -78 5 0 14 22 21 50 8 34 18 51 32
56 30 9 38 -6 27 -55 -10 -46 -6 -62 12 -44 6 6 12 35 13 65 l1 53 -46 1 -46
1 -12 -49z"/>
<path d="M9592 5938 c-22 -22 -14 -48 18 -59 36 -13 40 -39 6 -39 -14 0 -28 5
-31 10 -9 15 -25 12 -25 -5 0 -38 89 -38 104 0 11 29 7 36 -29 51 -20 8 -33
19 -30 24 8 14 39 12 53 -2 15 -15 24 -6 16 16 -7 19 -64 22 -82 4z"/>
<path d="M9700 5890 c-7 -33 -10 -63 -6 -67 10 -10 14 -1 30 65 11 49 12 62 1
62 -7 0 -18 -25 -25 -60z"/>
<path d="M9906 5941 c-2 -3 -6 -24 -10 -46 -4 -22 -9 -48 -12 -57 -3 -11 0
-18 9 -18 9 0 17 15 21 42 8 50 21 68 48 68 19 0 20 -4 13 -55 -4 -35 -3 -55
4 -55 12 0 35 105 26 120 -6 10 -93 11 -99 1z"/>
<path d="M10705 6128 c-5 -13 -35 -155 -35 -164 0 -2 27 -4 60 -4 33 0 60 4
60 10 0 6 -20 10 -45 10 -25 0 -45 3 -45 8 0 4 7 34 15 67 17 73 18 85 5 85
-6 0 -13 -6 -15 -12z"/>
<path d="M10871 6127 c-28 -14 -48 -43 -38 -53 4 -4 15 2 23 15 19 26 57 25
62 -2 2 -11 -8 -23 -29 -35 -39 -20 -89 -66 -89 -81 0 -7 24 -11 60 -11 33 0
60 4 60 10 0 6 -21 10 -47 10 -47 1 -48 1 -27 18 12 9 36 25 53 34 17 9 36 29
43 44 11 23 10 28 -11 45 -27 22 -29 22 -60 6z"/>
<path d="M11062 6088 c-16 -29 -40 -70 -52 -90 -17 -29 -19 -38 -8 -38 8 0 20
11 26 25 10 21 19 25 52 25 36 0 40 -2 40 -25 0 -16 6 -25 15 -25 12 0 14 8 9
38 -3 20 -8 59 -12 87 -10 70 -31 71 -70 3z m47 -40 c1 -13 -7 -18 -24 -18
-30 0 -30 3 -8 41 15 26 19 27 25 12 3 -10 7 -26 7 -35z"/>
<path d="M11623 6110 c-3 -11 -8 -20 -12 -20 -3 0 -7 -29 -8 -65 -3 -59 -1
-65 17 -65 11 0 20 5 20 10 0 6 -5 10 -10 10 -16 0 -1 73 19 88 12 10 13 15 3
21 -7 4 -10 15 -6 24 4 10 1 17 -6 17 -6 0 -14 -9 -17 -20z"/>
<path d="M11191 6064 c-12 -15 -21 -41 -21 -60 0 -28 5 -35 25 -40 14 -3 32
-4 40 0 23 8 18 -11 -7 -28 -16 -11 -26 -12 -40 -5 -27 14 -38 1 -14 -17 41
-30 90 7 106 79 6 29 13 61 16 73 5 19 1 21 -40 22 -37 2 -48 -2 -65 -24z m73
-10 c10 -27 -16 -69 -44 -69 -21 0 -25 4 -23 28 1 16 7 35 14 43 15 19 45 18
53 -2z"/>
<path d="M11343 6075 c-13 -9 -25 -32 -29 -52 -6 -30 -3 -39 15 -54 18 -14 27
-16 51 -7 17 5 33 14 36 20 9 15 -5 23 -18 10 -20 -20 -58 -15 -58 8 0 17 7
20 44 20 48 0 58 11 45 48 -10 26 -53 30 -86 7z m65 -22 c2 -9 -8 -13 -33 -13
-33 0 -36 2 -25 15 15 18 51 16 58 -2z"/>
<path d="M11461 6038 c-13 -60 -14 -78 -2 -78 5 0 14 22 21 50 8 34 18 51 32
56 30 9 38 -6 27 -55 -10 -46 -6 -62 12 -44 6 6 12 35 13 65 l1 53 -46 1 -46
1 -12 -49z"/>
<path d="M8993 5188 c-53 -71 -55 -88 -8 -88 28 0 35 -4 35 -20 0 -11 5 -20
10 -20 6 0 10 9 10 20 0 11 7 20 15 20 19 0 20 16 1 23 -10 4 -16 25 -18 64
l-3 58 -42 -57z m24 -65 c-3 -2 -15 -3 -26 -1 -20 3 -20 3 2 38 l22 35 3 -33
c2 -19 1 -36 -1 -39z"/>
<path d="M13126 4198 c8 -46 14 -86 14 -90 0 -5 6 -8 14 -8 12 0 37 39 113
173 2 4 -3 7 -11 7 -8 0 -31 -31 -53 -72 -34 -64 -38 -69 -44 -47 -4 13 -7 38
-8 56 -1 41 -10 63 -26 63 -10 0 -9 -17 1 -82z"/>
<path d="M13275 4203 c-9 -43 -18 -84 -20 -90 -3 -7 2 -13 10 -13 9 0 18 20
25 58 6 31 13 62 14 67 3 8 8 -18 19 -105 5 -37 33 -17 66 45 19 35 36 63 38
62 1 -2 -1 -19 -6 -38 -21 -81 -22 -89 -8 -89 15 0 55 165 44 177 -13 13 -38
-9 -61 -54 -48 -94 -52 -95 -60 -15 -6 61 -10 72 -26 72 -15 0 -22 -14 -35
-77z"/>
<path d="M13533 4256 c-36 -23 -42 -36 -17 -36 16 0 16 -21 -3 -97 -3 -16 -1
-23 9 -23 9 0 19 28 31 86 10 48 17 87 15 88 -2 2 -17 -7 -35 -18z"/>
<path d="M8022 3938 c-42 -11 -72 -59 -72 -114 0 -50 16 -66 65 -66 45 0 78
21 99 65 20 43 20 66 1 94 -18 25 -49 32 -93 21z m66 -30 c16 -16 15 -53 -3
-87 -36 -70 -129 -47 -110 27 14 58 80 93 113 60z"/>
<path d="M8301 3914 c-12 -15 -21 -30 -21 -35 0 -12 40 -36 73 -44 15 -4 27
-13 27 -19 0 -37 -78 -52 -87 -16 -6 22 -33 28 -33 7 0 -7 6 -22 14 -32 25
-35 118 -16 129 27 9 31 -2 46 -41 59 -49 15 -58 25 -42 44 16 19 59 20 66 0
7 -18 34 -20 34 -2 0 23 -23 37 -61 37 -29 0 -43 -6 -58 -26z"/>
<path d="M8542 3888 c-16 -29 -40 -70 -52 -90 -17 -29 -19 -38 -8 -38 8 0 20
11 26 25 10 21 19 25 52 25 36 0 40 -2 40 -25 0 -16 6 -25 15 -25 12 0 14 8 9
38 -3 20 -8 59 -12 87 -10 70 -31 71 -70 3z m47 -40 c1 -13 -7 -18 -24 -18
-30 0 -30 3 -8 41 15 26 19 27 25 12 3 -10 7 -26 7 -35z"/>
<path d="M9100 3915 c0 -7 -8 -19 -17 -25 -12 -7 -14 -13 -7 -16 8 -3 9 -16 3
-42 -13 -56 -11 -72 9 -72 14 0 17 9 17 50 0 37 5 53 20 64 11 9 14 16 8 16
-7 0 -13 9 -13 20 0 11 -4 20 -10 20 -5 0 -10 -7 -10 -15z"/>
<path d="M8151 3843 c4 -27 8 -56 8 -65 2 -35 30 -17 65 41 38 63 42 71 26 71
-5 0 -23 -23 -38 -51 l-29 -50 -7 50 c-4 32 -12 51 -20 51 -10 0 -11 -11 -5
-47z"/>
<path d="M8671 3864 c-12 -15 -21 -41 -21 -60 0 -28 5 -35 25 -40 14 -3 32 -4
40 0 23 8 18 -11 -7 -28 -16 -11 -26 -12 -40 -5 -27 14 -38 1 -14 -17 41 -30
90 7 106 79 6 29 13 61 16 73 5 19 1 21 -40 22 -37 2 -48 -2 -65 -24z m73 -10
c10 -27 -16 -69 -44 -69 -21 0 -25 4 -23 28 1 16 7 35 14 43 15 19 45 18 53
-2z"/>
<path d="M8823 3875 c-13 -9 -25 -32 -29 -52 -6 -30 -3 -39 15 -54 18 -14 27
-16 51 -7 17 5 33 14 36 20 9 15 -5 23 -18 10 -20 -20 -58 -15 -58 8 0 17 7
20 44 20 48 0 58 11 45 48 -10 26 -53 30 -86 7z m65 -22 c2 -9 -8 -13 -33 -13
-33 0 -36 2 -25 15 15 18 51 16 58 -2z"/>
<path d="M8941 3838 c-13 -60 -14 -78 -2 -78 5 0 14 22 21 50 8 34 18 51 32
56 30 9 38 -6 27 -55 -10 -46 -6 -62 12 -44 6 6 12 35 13 65 l1 53 -46 1 -46
1 -12 -49z"/>
<path d="M11232 4078 c-42 -11 -72 -59 -72 -114 0 -50 16 -66 65 -66 45 0 78
21 99 65 20 43 20 66 1 94 -18 25 -49 32 -93 21z m66 -30 c16 -16 15 -53 -3
-87 -36 -70 -129 -47 -110 27 14 58 80 93 113 60z"/>
<path d="M11347 3943 c-10 -47 -16 -88 -13 -90 10 -10 26 9 26 31 0 19 4 21
34 18 44 -5 78 35 74 87 -3 36 -3 36 -53 38 l-51 1 -17 -85z m97 51 c10 -27
-16 -69 -44 -69 -21 0 -25 4 -23 28 1 16 7 35 14 43 15 19 45 18 53 -2z"/>
<path d="M11513 4008 c-45 -50 -33 -110 21 -110 15 0 38 9 49 21 23 23 9 29
-22 9 -22 -14 -51 -4 -51 17 0 11 12 15 50 15 46 0 50 2 50 23 0 49 -61 65
-97 25z m67 -13 c0 -10 -10 -15 -30 -15 -47 0 -35 27 13 29 9 1 17 -6 17 -14z"/>
<path d="M11631 3978 c-13 -60 -14 -78 -2 -78 5 0 14 22 21 50 8 34 18 51 32
56 30 9 38 -6 27 -55 -10 -46 -6 -62 12 -44 6 6 12 35 13 65 l1 53 -46 1 -46
1 -12 -49z"/>
<path d="M11191 3764 c-12 -15 -21 -30 -21 -35 0 -12 40 -36 73 -44 15 -4 27
-13 27 -19 0 -37 -78 -52 -87 -16 -6 22 -33 28 -33 7 0 -7 6 -22 14 -32 25
-35 118 -16 129 27 9 31 -2 46 -41 59 -49 15 -58 25 -42 44 16 19 59 20 66 0
7 -18 34 -20 34 -2 0 23 -23 37 -61 37 -29 0 -43 -6 -58 -26z"/>
<path d="M11527 3784 c-8 -8 1 -24 14 -24 5 0 9 7 9 15 0 15 -12 20 -23 9z"/>
<path d="M11775 3778 c-2 -7 -9 -40 -15 -73 -6 -33 -14 -68 -16 -77 -3 -11 0
-18 9 -18 9 0 17 15 21 42 8 49 21 68 47 68 22 0 25 -25 10 -78 -8 -25 -7 -32
4 -32 15 0 41 103 29 121 -3 6 -21 9 -40 7 -31 -4 -32 -3 -27 24 6 28 -13 41
-22 16z"/>
<path d="M11583 3760 c-3 -11 -8 -20 -12 -20 -3 0 -7 -29 -8 -65 -3 -59 -1
-65 17 -65 11 0 20 5 20 10 0 6 -5 10 -10 10 -16 0 -1 73 19 88 12 10 13 15 3
21 -7 4 -10 15 -6 24 4 10 1 17 -6 17 -6 0 -14 -9 -17 -20z"/>
<path d="M11674 3739 c-42 -15 -65 -69 -48 -113 10 -25 70 -21 88 6 20 28 12
36 -13 14 -29 -26 -56 -17 -54 18 1 15 7 34 14 42 13 16 49 19 49 4 0 -5 7
-10 15 -10 16 0 19 9 7 26 -11 17 -35 22 -58 13z"/>
<path d="M11041 3693 c4 -27 8 -56 8 -65 2 -35 30 -17 65 41 38 63 42 71 26
71 -5 0 -23 -23 -38 -51 l-29 -50 -7 50 c-4 32 -12 51 -20 51 -10 0 -11 -11
-5 -47z"/>
<path d="M11324 3724 c3 -9 6 -38 6 -65 0 -63 24 -68 47 -9 9 22 20 40 25 40
4 0 8 -18 8 -40 0 -59 21 -50 58 25 21 43 27 65 19 65 -7 0 -23 -19 -34 -42
l-22 -43 0 43 c-1 57 -24 55 -55 -5 l-25 -48 -1 48 c0 36 -4 47 -16 47 -11 0
-14 -5 -10 -16z"/>
<path d="M11517 3733 c-2 -5 -7 -26 -11 -48 -4 -22 -9 -48 -12 -57 -3 -11 0
-18 9 -18 9 0 17 15 21 43 4 23 9 52 13 65 5 20 -10 32 -20 15z"/>
<path d="M9836 3854 c-3 -9 -6 -28 -6 -43 0 -26 3 -28 38 -27 35 1 37 -1 37
-29 0 -24 -5 -31 -23 -33 -13 -2 -30 2 -38 9 -19 16 -30 4 -14 -16 19 -23 76
-19 94 7 9 12 16 30 16 39 0 24 -33 49 -63 49 -20 0 -27 5 -27 20 0 17 7 20
40 20 22 0 40 5 40 10 0 17 -87 12 -94 -6z"/>
<path d="M12854 3680 c-12 -4 -31 -21 -43 -36 -18 -23 -21 -40 -21 -125 l0
-98 -122 -3 c-74 -2 -123 -7 -123 -13 0 -6 49 -11 123 -13 l122 -3 0 -87 c0
-101 16 -139 73 -165 31 -15 84 -17 467 -17 581 0 540 -22 540 291 l0 209 -29
32 -29 33 -469 2 c-257 1 -478 -2 -489 -7z m972 -43 c24 -28 24 -32 24 -218 0
-207 -6 -235 -55 -257 -19 -9 -146 -12 -465 -12 -472 0 -480 1 -506 51 -17 33
-20 371 -4 414 20 53 35 55 528 52 l454 -2 24 -28z"/>
<path d="M13126 3418 c8 -46 14 -86 14 -90 0 -5 6 -8 14 -8 12 0 37 39 113
173 2 4 -3 7 -11 7 -8 0 -31 -31 -53 -72 -34 -64 -38 -69 -44 -47 -4 13 -7 38
-8 56 -1 41 -10 63 -26 63 -10 0 -9 -17 1 -82z"/>
<path d="M13275 3423 c-9 -43 -18 -84 -20 -90 -3 -7 2 -13 10 -13 9 0 18 20
25 58 6 31 13 62 14 67 3 8 8 -18 19 -105 5 -37 33 -17 66 45 19 35 36 63 38
62 1 -2 -1 -19 -6 -38 -21 -81 -22 -89 -8 -89 15 0 55 165 44 177 -13 13 -38
-9 -61 -54 -48 -94 -52 -95 -60 -15 -6 61 -10 72 -26 72 -15 0 -22 -14 -35
-77z"/>
<path d="M13532 3492 c-24 -4 -59 -48 -47 -60 4 -4 14 3 22 16 20 28 63 30 63
3 0 -20 -38 -56 -71 -66 -11 -4 -26 -20 -34 -36 l-16 -29 66 0 c37 0 65 4 65
10 0 6 -20 10 -45 10 -25 0 -45 4 -45 8 0 5 22 21 50 36 86 47 80 122 -8 108z"/>
<path d="M7800 6100 c-15 -28 -3 -41 15 -17 18 25 60 19 60 -8 0 -13 -8 -21
-22 -23 -13 -2 -23 -7 -23 -12 0 -5 10 -10 23 -12 16 -2 22 -10 22 -28 0 -32
-42 -41 -62 -14 -16 22 -31 9 -17 -14 17 -26 76 -27 99 -2 18 20 18 24 4 49
-12 20 -13 31 -5 44 17 26 -5 51 -47 55 -28 2 -38 -1 -47 -18z"/>
<path d="M8092 1888 c-14 -14 -16 -38 -3 -38 5 0 11 7 15 15 3 8 17 15 31 15
19 0 25 -5 25 -21 0 -12 -8 -23 -20 -26 -27 -7 -25 -21 3 -25 16 -2 22 -10 22
-28 0 -21 -5 -26 -32 -28 -25 -2 -33 1 -33 12 0 9 -7 16 -15 16 -19 0 -19 -14
1 -34 18 -19 75 -21 92 -4 15 15 16 64 2 73 -7 4 -7 13 0 26 17 30 -4 59 -43
59 -18 0 -38 -5 -45 -12z"/>
<path d="M310 1271 c0 -5 -9 -13 -20 -16 -11 -3 -20 -11 -20 -16 0 -5 9 -9 20
-9 18 0 20 -7 20 -60 0 -33 4 -60 10 -60 6 0 10 35 10 85 0 50 -4 85 -10 85
-5 0 -10 -4 -10 -9z"/>
<path d="M8112 1110 c-23 -32 -42 -64 -42 -70 0 -5 18 -10 40 -10 33 0 40 -3
40 -20 0 -11 5 -20 10 -20 6 0 10 7 10 16 0 9 8 23 18 30 16 13 16 13 0 14
-15 0 -18 10 -18 60 0 33 -4 60 -8 60 -4 0 -27 -27 -50 -60z m38 -25 c0 -31
-3 -35 -25 -35 -14 0 -25 3 -25 6 0 8 40 64 46 64 2 0 4 -16 4 -35z"/>
<path d="M272 398 c-14 -14 -16 -48 -3 -48 5 0 11 9 14 21 4 16 12 20 34 17
43 -5 41 -33 -6 -65 -22 -15 -45 -40 -50 -55 l-10 -28 60 0 c33 0 59 4 59 10
0 6 -20 10 -45 10 -25 0 -45 4 -45 9 0 6 18 20 40 32 43 24 60 60 43 88 -12
20 -74 26 -91 9z"/>
<path d="M8090 396 c0 -7 -3 -28 -6 -45 l-7 -32 40 7 c33 5 41 3 47 -11 16
-43 -30 -75 -62 -43 -17 17 -28 2 -12 -17 16 -20 64 -19 84 1 9 8 16 28 16 44
0 32 -23 50 -63 50 -20 0 -24 4 -20 20 4 15 14 20 39 20 19 0 34 5 34 10 0 6
-20 10 -45 10 -32 0 -45 -4 -45 -14z"/>
</g>
</svg>
