<?xml version="1.0" standalone="no"?>
<!DOCTYPE svg PUBLIC "-//W3C//DTD SVG 20010904//EN"
 "http://www.w3.org/TR/2001/REC-SVG-20010904/DTD/svg10.dtd">
<svg version="1.0" xmlns="http://www.w3.org/2000/svg"
 width="978.000000pt" height="734.000000pt" viewBox="0 0 978.000000 734.000000"
 preserveAspectRatio="xMidYMid meet">
<metadata>
Created by potrace 1.13, written by Peter Selinger 2001-2015
</metadata>
<g transform="translate(0.000000,734.000000) scale(0.100000,-0.100000)"
fill="#000000" stroke="none">
<path d="M0 3670 l0 -3670 4890 0 4890 0 0 3670 0 3670 -4890 0 -4890 0 0
-3670z m6067 3590 c50 -30 55 -61 51 -377 -3 -268 -4 -283 -24 -310 -11 -15
-32 -34 -45 -40 -19 -10 -277 -13 -1152 -13 -1251 0 -1179 -4 -1211 65 -23 48
-24 591 -1 635 32 63 -40 59 1210 60 1113 0 1141 -1 1172 -20z m15 -2078 l33
-32 0 -304 c0 -330 -2 -344 -57 -372 -23 -12 -203 -14 -1163 -14 -1260 0
-1182 -4 -1211 65 -21 51 -20 580 1 631 28 67 -42 64 1222 61 l1143 -2 32 -33z
m469 -2061 l29 -29 0 -312 c0 -194 -4 -319 -10 -331 -28 -52 58 -49 -1683 -49
-1603 0 -1614 0 -1640 20 -14 11 -30 35 -36 53 -6 19 -9 151 -8 325 l2 294 33
29 32 29 1626 0 1626 0 29 -29z m-3793 -1330 c2 -244 1 -276 -14 -293 -16 -17
-48 -18 -659 -18 -485 0 -644 3 -653 12 -9 9 -12 88 -12 295 l0 283 668 -2
667 -3 3 -274z m5619 268 c10 -9 13 -67 13 -275 0 -251 -1 -265 -20 -284 -20
-20 -33 -20 -664 -20 -412 0 -647 4 -651 10 -4 7 -9 504 -5 575 0 3 295 5 657
5 466 0 660 -3 670 -11z m-4356 -1188 l29 -29 0 -307 c0 -332 -3 -349 -55
-373 -20 -9 -473 -12 -1921 -12 l-1896 0 -34 34 -34 34 0 301 c0 318 3 345 47
370 12 7 651 10 1926 11 l1909 0 29 -29z m5625 -2 l29 -30 3 -297 c3 -316 1
-336 -46 -372 -24 -20 -51 -20 -1928 -20 l-1903 0 -28 24 -28 24 -5 304 c-6
324 -3 350 41 382 21 15 185 16 1929 16 l1906 0 30 -31z"/>
<path d="M4550 6901 c0 -125 2 -151 15 -151 10 0 15 16 17 63 l3 62 60 3 c33
1 70 7 82 14 29 14 47 67 34 99 -16 43 -38 52 -127 57 l-84 5 0 -152z m144
109 c34 -12 44 -54 21 -80 -14 -16 -31 -20 -77 -20 l-58 0 0 48 c0 27 3 52 7
55 10 10 78 8 107 -3z"/>
<path d="M5200 7000 c0 -20 -5 -30 -15 -30 -8 0 -15 -7 -15 -15 0 -8 7 -15 15
-15 11 0 15 -19 17 -92 l3 -93 28 -3 c19 -2 27 1 27 12 0 9 -7 16 -15 16 -12
0 -15 16 -15 80 0 64 3 80 15 80 8 0 15 7 15 15 0 8 -7 15 -15 15 -10 0 -15
10 -15 30 0 20 -5 30 -15 30 -10 0 -15 -10 -15 -30z"/>
<path d="M4829 6941 c-28 -28 -34 -50 -30 -111 5 -61 62 -97 126 -79 43 12 65
51 65 114 0 61 -40 105 -95 105 -27 0 -44 -8 -66 -29z m112 -18 c8 -9 14 -38
14 -65 0 -40 -5 -53 -24 -69 -31 -25 -47 -24 -76 6 -29 29 -34 88 -9 123 19
27 75 30 95 5z"/>
<path d="M5050 6860 c0 -91 3 -110 15 -110 12 0 15 14 15 66 0 74 11 101 46
114 25 10 34 40 11 40 -7 0 -23 -7 -35 -16 -20 -14 -22 -14 -22 0 0 9 -7 16
-15 16 -12 0 -15 -19 -15 -110z"/>
<path d="M3950 4977 c-56 -28 -90 -150 -59 -210 34 -66 99 -96 169 -77 32 9
44 8 64 -5 32 -21 47 0 16 22 -19 13 -20 17 -7 32 21 23 29 55 29 111 -1 60
-23 105 -62 125 -35 18 -116 19 -150 2z m133 -38 c35 -27 51 -87 37 -139 -12
-45 -25 -57 -45 -40 -18 15 -42 3 -26 -13 20 -20 12 -27 -30 -27 -33 0 -47 6
-71 32 -28 30 -30 36 -26 97 4 56 8 67 34 87 37 30 92 32 127 3z"/>
<path d="M4482 4974 c-33 -23 -46 -61 -31 -96 9 -21 23 -31 62 -43 28 -8 56
-15 63 -15 6 0 22 -8 34 -18 34 -27 21 -68 -25 -81 -53 -14 -115 10 -115 46 0
7 -9 13 -21 13 -16 0 -19 -4 -13 -22 20 -69 94 -91 186 -56 37 14 52 59 34
102 -12 30 -21 35 -82 51 -38 10 -75 23 -81 28 -20 14 -15 55 6 67 47 25 121
1 121 -38 0 -7 9 -12 20 -12 29 0 25 27 -9 61 -25 24 -38 29 -78 29 -28 0 -58
-7 -71 -16z"/>
<path d="M4850 4841 c0 -125 2 -151 15 -151 10 0 15 16 17 63 l3 62 60 3 c33
1 70 7 82 14 29 14 47 67 34 99 -16 43 -38 52 -127 57 l-84 5 0 -152z m144
109 c34 -12 44 -54 21 -80 -14 -16 -31 -20 -77 -20 l-58 0 0 48 c0 27 3 52 7
55 10 10 78 8 107 -3z"/>
<path d="M5350 4840 c0 -127 2 -150 15 -150 13 0 15 23 15 150 0 127 -2 150
-15 150 -13 0 -15 -23 -15 -150z"/>
<path d="M5440 4970 c0 -11 7 -20 15 -20 8 0 15 9 15 20 0 11 -7 20 -15 20 -8
0 -15 -9 -15 -20z"/>
<path d="M4229 4881 c-28 -28 -34 -50 -30 -111 5 -61 62 -97 126 -79 43 12 65
51 65 114 0 61 -40 105 -95 105 -27 0 -44 -8 -66 -29z m112 -18 c8 -9 14 -38
14 -65 0 -40 -5 -53 -24 -69 -31 -25 -47 -24 -76 6 -29 29 -34 88 -9 123 19
27 75 30 95 5z"/>
<path d="M5139 4881 c-28 -28 -34 -50 -30 -111 5 -61 62 -97 126 -79 43 12 65
51 65 114 0 61 -40 105 -95 105 -27 0 -44 -8 -66 -29z m112 -18 c8 -9 14 -38
14 -65 0 -40 -5 -53 -24 -69 -31 -25 -47 -24 -76 6 -29 29 -34 88 -9 123 19
27 75 30 95 5z"/>
<path d="M5440 4800 c0 -91 3 -110 15 -110 12 0 15 19 15 110 0 91 -3 110 -15
110 -12 0 -15 -19 -15 -110z"/>
<path d="M5551 4886 c-46 -49 -45 -148 2 -181 32 -23 92 -19 117 7 18 20 28
58 14 58 -3 0 -19 -13 -34 -30 -34 -37 -44 -37 -77 -4 -22 22 -25 32 -20 70 2
24 10 51 17 59 18 22 67 19 82 -5 16 -26 38 -26 38 -1 0 50 -99 69 -139 27z"/>
<path d="M5722 4894 c3 -11 21 -62 40 -115 32 -87 34 -98 21 -123 -7 -14 -20
-26 -28 -26 -8 0 -15 -7 -15 -15 0 -22 28 -18 54 8 22 22 121 275 112 285 -16
15 -37 -16 -61 -88 -15 -45 -30 -78 -34 -75 -3 4 -18 41 -32 83 -18 54 -31 78
-44 81 -13 2 -17 -2 -13 -15z"/>
<path d="M3460 2907 c-56 -28 -90 -150 -59 -210 34 -66 99 -96 169 -77 32 9
44 8 64 -5 32 -21 47 0 16 22 -19 13 -20 17 -7 32 21 23 29 55 29 111 -1 60
-23 105 -62 125 -35 18 -116 19 -150 2z m133 -38 c35 -27 51 -87 37 -139 -12
-45 -25 -57 -45 -40 -18 15 -42 3 -26 -13 20 -20 12 -27 -30 -27 -33 0 -47 6
-71 32 -28 30 -30 36 -26 97 4 56 8 67 34 87 37 30 92 32 127 3z"/>
<path d="M4002 2904 c-33 -23 -46 -61 -31 -96 9 -21 23 -31 62 -43 28 -8 56
-15 63 -15 6 0 22 -8 34 -18 34 -27 21 -68 -25 -81 -53 -14 -115 10 -115 46 0
7 -9 13 -21 13 -16 0 -19 -4 -13 -22 20 -69 94 -91 186 -56 37 14 52 59 34
102 -12 30 -21 35 -82 51 -38 10 -75 23 -81 28 -20 14 -15 55 6 67 47 25 121
1 121 -38 0 -7 9 -12 20 -12 29 0 25 27 -9 61 -25 24 -38 29 -78 29 -28 0 -58
-7 -71 -16z"/>
<path d="M4360 2771 c0 -125 2 -151 15 -151 10 0 15 16 17 63 l3 62 60 3 c33
1 70 7 82 14 29 14 47 67 34 99 -16 43 -38 52 -127 57 l-84 5 0 -152z m144
109 c34 -12 44 -54 21 -80 -14 -16 -31 -20 -77 -20 l-58 0 0 48 c0 27 3 52 7
55 10 10 78 8 107 -3z"/>
<path d="M4860 2770 c0 -127 2 -150 15 -150 13 0 15 23 15 150 0 127 -2 150
-15 150 -13 0 -15 -23 -15 -150z"/>
<path d="M4950 2900 c0 -11 7 -20 15 -20 8 0 15 9 15 20 0 11 -7 20 -15 20 -8
0 -15 -9 -15 -20z"/>
<path d="M5590 2770 c0 -143 1 -150 20 -150 18 0 20 7 20 65 l0 65 58 0 c31 0
64 -4 72 -10 8 -5 17 -31 20 -62 4 -44 9 -54 26 -56 19 -3 20 0 13 60 -4 38
-13 66 -23 74 -14 10 -14 13 4 29 21 19 26 65 10 95 -14 26 -63 40 -146 40
l-74 0 0 -150z m168 104 c28 -20 30 -69 3 -84 -11 -5 -45 -10 -75 -10 l-56 0
0 55 0 55 53 0 c31 0 61 -6 75 -16z"/>
<path d="M6110 2770 c0 -127 2 -150 15 -150 13 0 15 23 15 150 0 127 -2 150
-15 150 -13 0 -15 -23 -15 -150z"/>
<path d="M3749 2811 c-28 -28 -34 -50 -30 -111 5 -61 62 -97 126 -79 43 12 65
51 65 114 0 61 -40 105 -95 105 -27 0 -44 -8 -66 -29z m112 -18 c8 -9 14 -38
14 -65 0 -40 -5 -53 -24 -69 -31 -25 -47 -24 -76 6 -29 29 -34 88 -9 123 19
27 75 30 95 5z"/>
<path d="M4649 2811 c-28 -28 -34 -50 -30 -111 5 -61 62 -97 126 -79 43 12 65
51 65 114 0 61 -40 105 -95 105 -27 0 -44 -8 -66 -29z m112 -18 c8 -9 14 -38
14 -65 0 -40 -5 -53 -24 -69 -31 -25 -47 -24 -76 6 -29 29 -34 88 -9 123 19
27 75 30 95 5z"/>
<path d="M4950 2730 c0 -91 3 -110 15 -110 12 0 15 19 15 110 0 91 -3 110 -15
110 -12 0 -15 -19 -15 -110z"/>
<path d="M5071 2816 c-46 -49 -45 -148 2 -181 32 -23 92 -19 117 7 18 20 28
58 14 58 -3 0 -19 -13 -34 -30 -34 -37 -44 -37 -77 -4 -22 22 -25 32 -20 70 2
24 10 51 17 59 18 22 67 19 82 -5 16 -26 38 -26 38 -1 0 50 -99 69 -139 27z"/>
<path d="M5232 2824 c3 -11 21 -62 40 -115 32 -87 34 -98 21 -123 -7 -14 -20
-26 -28 -26 -8 0 -15 -7 -15 -15 0 -22 28 -18 54 8 22 22 121 275 112 285 -16
15 -37 -16 -61 -88 -15 -45 -30 -78 -34 -75 -3 4 -18 41 -32 83 -18 54 -31 78
-44 81 -13 2 -17 -2 -13 -15z"/>
<path d="M5880 2747 c0 -107 11 -127 70 -127 18 0 42 7 52 17 17 15 18 15 18
0 0 -10 7 -17 15 -17 12 0 15 19 15 110 0 87 -3 110 -14 110 -10 0 -15 -21
-18 -79 -5 -89 -17 -111 -59 -111 -39 0 -49 24 -49 114 0 61 -3 76 -15 76 -12
0 -15 -17 -15 -93z"/>
<path d="M6237 2829 c-41 -24 -60 -110 -36 -162 29 -63 133 -67 164 -7 19 37
4 39 -37 5 -16 -14 -35 -25 -43 -25 -19 0 -52 32 -60 58 -6 22 -5 22 76 22
l82 0 -6 38 c-11 65 -84 103 -140 71z m100 -48 c6 -14 10 -29 7 -33 -6 -9
-108 -11 -117 -2 -7 8 11 45 27 57 23 15 70 3 83 -22z"/>
<path d="M2392 1863 c14 -4 17 -18 17 -88 -1 -88 -11 -111 -43 -99 -13 5 -16
17 -14 53 3 39 6 46 26 49 26 4 20 22 -7 22 -43 0 -68 -70 -42 -118 13 -24 66
-31 74 -9 4 10 6 10 6 0 1 -7 13 -13 28 -13 21 0 24 3 15 12 -8 8 -12 46 -12
105 l0 93 -32 -1 c-18 -1 -25 -3 -16 -6z"/>
<path d="M1900 1831 c0 -11 -8 -25 -17 -30 -13 -8 -15 -13 -6 -19 6 -4 13 -32
15 -62 3 -50 5 -55 27 -58 23 -4 51 19 51 40 0 17 -18 7 -23 -13 -10 -36 -27
-10 -27 41 0 42 3 49 23 53 l22 4 -22 8 c-13 4 -23 16 -23 26 0 10 -4 21 -10
24 -5 3 -10 -3 -10 -14z"/>
<path d="M1595 1775 c-30 -29 -32 -64 -7 -95 28 -34 102 -25 102 13 0 5 -8 3
-18 -6 -25 -22 -49 -21 -62 2 -15 30 -14 31 35 31 41 0 45 2 45 23 0 27 -28
57 -54 57 -9 0 -28 -11 -41 -25z m59 -1 c21 -21 12 -34 -25 -34 -32 0 -37 11
-13 34 19 20 19 20 38 0z"/>
<path d="M1715 1790 c-3 -5 -2 -10 4 -10 5 0 19 -13 30 -29 l21 -29 -31 -31
-31 -31 32 0 c19 0 29 4 25 10 -4 6 -4 18 -1 27 5 12 9 13 22 3 8 -7 13 -19
10 -27 -4 -9 4 -13 28 -13 l34 0 -29 31 c-35 38 -36 52 -4 77 31 25 31 32 1
32 -25 0 -44 -16 -26 -22 6 -2 6 -9 0 -18 -8 -13 -11 -13 -27 3 -11 11 -13 17
-5 17 7 0 10 5 7 10 -3 6 -17 10 -30 10 -13 0 -27 -4 -30 -10z"/>
<path d="M2010 1780 c-26 -26 -26 -81 0 -105 23 -20 63 -23 85 -5 26 21 16 30
-14 12 -24 -14 -31 -14 -45 -3 -30 25 -19 41 29 41 38 0 45 3 45 20 0 11 -9
29 -20 40 -11 11 -29 20 -40 20 -11 0 -29 -9 -40 -20z m58 -2 c21 -21 13 -38
-18 -38 -18 0 -30 5 -30 13 0 13 19 37 30 37 3 0 11 -5 18 -12z"/>
<path d="M2130 1790 c0 -5 5 -10 10 -10 15 0 13 -107 -2 -113 -7 -3 5 -5 27
-5 22 0 34 2 28 5 -18 7 -17 88 2 103 8 7 22 10 30 6 19 -7 21 -102 3 -109 -7
-3 5 -5 27 -5 22 0 34 2 28 5 -8 3 -13 24 -13 53 0 31 -6 54 -16 64 -18 19
-16 19 -48 6 -16 -6 -27 -6 -31 0 -8 13 -45 13 -45 0z"/>
<path d="M2495 1780 c-24 -27 -12 -50 36 -66 19 -7 34 -18 34 -25 0 -23 -36
-22 -61 2 l-24 22 0 -25 c0 -22 4 -25 44 -26 79 -3 90 58 15 78 -24 7 -39 16
-36 23 6 19 37 20 58 1 18 -16 19 -16 19 4 0 12 -6 22 -12 22 -7 0 -22 3 -33
6 -14 3 -28 -2 -40 -16z"/>
<path d="M8023 1859 c11 -6 17 -22 17 -45 0 -31 -2 -34 -19 -24 -28 15 -38 13
-61 -12 -24 -26 -26 -65 -4 -96 17 -24 53 -29 72 -10 9 9 12 9 12 0 0 -7 12
-12 26 -12 23 0 24 1 10 16 -12 12 -16 37 -16 105 l0 89 -27 0 c-24 -1 -25 -2
-10 -11z m9 -105 c10 -21 9 -31 -3 -52 -19 -34 -41 -34 -53 -1 -22 63 30 112
56 53z"/>
<path d="M7513 1813 c-12 -18 -18 -33 -13 -33 5 0 10 -23 12 -51 2 -36 8 -55
21 -63 21 -14 50 2 55 30 3 16 1 16 -13 -4 -23 -32 -35 -19 -35 39 0 42 3 49
20 49 11 0 20 5 20 10 0 6 -9 10 -19 10 -13 0 -21 8 -23 23 -3 23 -4 23 -25
-10z"/>
<path d="M7220 1780 c-26 -26 -26 -81 0 -105 23 -20 63 -23 85 -5 26 21 16 30
-14 12 -24 -14 -31 -14 -45 -3 -30 25 -19 41 29 41 38 0 45 3 45 20 0 26 -34
60 -60 60 -11 0 -29 -9 -40 -20z m58 -2 c21 -21 13 -38 -18 -38 -18 0 -30 5
-30 13 0 13 19 37 30 37 3 0 11 -5 18 -12z"/>
<path d="M7340 1792 c0 -5 11 -19 25 -32 31 -30 31 -37 -2 -72 l-27 -28 35 0
c24 0 30 3 20 9 -13 8 -13 12 -1 26 13 16 15 16 27 -1 10 -14 10 -19 0 -26 -7
-4 4 -8 27 -8 l38 0 -31 35 c-27 31 -29 38 -18 55 6 11 20 23 30 26 24 8 11
24 -19 24 -20 0 -24 -4 -19 -19 3 -11 1 -23 -6 -26 -14 -9 -29 13 -22 32 4 9
-4 13 -26 13 -17 0 -31 -4 -31 -8z"/>
<path d="M7635 1775 c-30 -29 -32 -64 -7 -95 28 -34 102 -25 102 13 0 5 -8 3
-18 -6 -25 -22 -49 -21 -62 2 -15 30 -14 31 35 31 41 0 45 2 45 23 0 27 -28
57 -54 57 -9 0 -28 -11 -41 -25z m59 -1 c21 -21 12 -34 -25 -34 -32 0 -37 11
-13 34 19 20 19 20 38 0z"/>
<path d="M7760 1791 c0 -6 5 -13 10 -16 18 -11 12 -93 -7 -104 -14 -8 -9 -10
26 -11 40 0 43 1 26 14 -14 10 -17 21 -12 49 8 48 -1 77 -24 77 -11 0 -19 -4
-19 -9z"/>
<path d="M7824 1784 c-18 -15 -18 -15 0 -10 10 4 25 1 32 -5 17 -14 18 -81 2
-97 -9 -9 -3 -12 28 -12 21 0 34 4 28 8 -6 4 -14 29 -17 56 -3 32 -12 55 -23
63 -23 17 -26 16 -50 -3z"/>
<path d="M8125 1786 c-10 -7 -16 -22 -13 -37 2 -18 12 -26 41 -33 26 -7 37
-15 37 -28 0 -25 -46 -24 -62 2 -17 27 -26 25 -21 -4 9 -46 103 -39 103 7 0
29 -16 44 -50 49 -14 1 -26 11 -28 21 -5 23 43 23 57 0 12 -22 22 -14 15 12
-6 24 -53 30 -79 11z"/>
<path d="M260 520 l0 -150 65 0 c121 0 169 42 169 150 0 108 -48 150 -169 150
l-65 0 0 -150z m159 99 c41 -27 55 -113 26 -169 -17 -33 -70 -54 -120 -48
l-30 3 -3 104 c-1 58 0 111 3 119 7 18 91 11 124 -9z"/>
<path d="M592 654 c-33 -23 -46 -61 -31 -96 9 -21 23 -31 62 -43 28 -8 56 -15
63 -15 6 0 22 -8 34 -18 34 -27 21 -68 -25 -81 -53 -14 -115 10 -115 46 0 7
-9 13 -21 13 -16 0 -19 -4 -13 -22 20 -69 94 -91 186 -56 37 14 52 59 34 102
-12 30 -21 35 -82 51 -38 10 -75 23 -81 28 -20 14 -15 55 6 67 47 25 121 1
121 -38 0 -7 9 -12 20 -12 29 0 25 27 -9 61 -25 24 -38 29 -78 29 -28 0 -58
-7 -71 -16z"/>
<path d="M865 648 c-75 -59 -72 -203 6 -261 30 -21 105 -25 139 -7 22 12 60
67 60 88 0 6 -9 12 -20 12 -11 0 -20 -6 -20 -14 0 -7 -10 -25 -21 -40 -18 -23
-27 -27 -67 -24 -40 3 -49 8 -70 38 -20 30 -23 44 -20 94 4 49 9 63 32 83 47
40 115 29 144 -24 5 -8 16 -13 25 -12 15 4 15 7 1 35 -19 39 -51 54 -113 54
-34 0 -56 -6 -76 -22z"/>
<path d="M1140 521 c0 -125 2 -151 15 -151 10 0 15 16 17 63 l3 62 60 3 c33 1
70 7 82 14 29 14 47 67 34 99 -16 43 -38 52 -127 57 l-84 5 0 -152z m144 109
c34 -12 44 -54 21 -80 -14 -16 -31 -20 -77 -20 l-58 0 0 48 c0 27 3 52 7 55
10 10 78 8 107 -3z"/>
<path d="M1510 520 c0 -143 1 -150 20 -150 19 0 20 7 21 123 l1 122 41 -123
c55 -162 64 -162 121 2 l41 119 3 -122 c2 -113 4 -121 23 -121 19 0 19 6 17
148 l-3 147 -26 3 c-26 3 -28 -1 -69 -122 -23 -69 -43 -126 -45 -126 -2 0 -22
56 -45 125 -41 122 -42 125 -71 125 l-29 0 0 -150z"/>
<path d="M2230 520 c0 -127 2 -150 15 -150 11 0 15 12 15 44 0 27 6 48 15 56
18 15 14 18 55 -47 20 -34 39 -53 51 -53 10 0 19 2 19 6 0 3 -18 32 -41 66
l-41 60 36 37 c20 20 36 40 36 44 0 20 -36 2 -80 -39 l-50 -47 0 87 c0 70 -3
86 -15 86 -13 0 -15 -23 -15 -150z"/>
<path d="M2440 650 c0 -11 7 -20 15 -20 8 0 15 9 15 20 0 11 -7 20 -15 20 -8
0 -15 -9 -15 -20z"/>
<path d="M3120 520 c0 -143 1 -150 20 -150 18 0 20 7 20 65 l0 65 58 0 c31 0
64 -4 72 -10 8 -5 17 -31 20 -62 4 -44 9 -54 26 -56 19 -3 20 0 13 60 -4 38
-13 66 -23 74 -14 10 -14 13 4 29 21 19 26 65 10 95 -14 26 -63 40 -146 40
l-74 0 0 -150z m168 104 c28 -20 30 -69 3 -84 -11 -5 -45 -10 -75 -10 l-56 0
0 55 0 55 53 0 c31 0 61 -6 75 -16z"/>
<path d="M3640 520 c0 -127 2 -150 15 -150 13 0 15 23 15 150 0 127 -2 150
-15 150 -13 0 -15 -23 -15 -150z"/>
<path d="M1900 583 c-19 -8 -39 -34 -40 -50 0 -20 24 -15 38 8 10 15 21 19 50
17 32 -3 37 -7 37 -27 0 -21 -7 -26 -52 -36 -64 -15 -83 -29 -83 -65 0 -55 71
-81 125 -46 20 13 24 13 29 1 3 -8 15 -15 26 -15 21 0 26 10 11 26 -5 5 -11
44 -13 86 -2 43 -9 83 -15 89 -13 13 -91 22 -113 12z m88 -135 c-3 -37 -43
-64 -77 -53 -48 15 -25 71 33 78 17 2 35 5 39 5 5 1 7 -13 5 -30z"/>
<path d="M2090 480 c0 -91 3 -110 15 -110 12 0 15 14 15 66 0 74 11 101 46
114 25 10 34 40 11 40 -7 0 -23 -7 -35 -16 -20 -14 -22 -14 -22 0 0 9 -7 16
-15 16 -12 0 -15 -19 -15 -110z"/>
<path d="M2440 480 c0 -91 3 -110 15 -110 12 0 15 19 15 110 0 91 -3 110 -15
110 -12 0 -15 -19 -15 -110z"/>
<path d="M2530 480 c0 -91 3 -110 15 -110 12 0 15 15 15 75 0 83 18 115 65
115 34 0 45 -27 45 -114 0 -61 3 -76 15 -76 12 0 15 17 15 93 0 78 -3 97 -18
110 -23 21 -71 22 -100 1 -20 -14 -22 -14 -22 0 0 9 -7 16 -15 16 -12 0 -15
-19 -15 -110z"/>
<path d="M2785 568 c-49 -43 -51 -149 -2 -183 28 -20 76 -19 99 2 17 15 18 15
18 -8 0 -41 -27 -69 -65 -69 -21 0 -37 6 -43 16 -5 9 -18 14 -28 12 -17 -3
-17 -6 8 -31 43 -43 123 -32 147 20 6 13 11 75 11 138 0 96 -3 115 -15 115 -8
0 -15 -5 -15 -11 0 -5 -10 -3 -22 5 -31 22 -62 20 -93 -6z m99 -30 c9 -12 16
-38 16 -58 0 -69 -57 -104 -102 -63 -23 20 -24 90 -2 121 20 30 68 30 88 0z"/>
<path d="M3410 497 c0 -78 3 -97 18 -110 24 -22 80 -22 104 0 17 15 18 15 18
0 0 -10 7 -17 15 -17 12 0 15 19 15 110 0 87 -3 110 -14 110 -10 0 -15 -21
-18 -79 -5 -89 -17 -111 -59 -111 -39 0 -49 24 -49 114 0 61 -3 76 -15 76 -12
0 -15 -17 -15 -93z"/>
<path d="M3777 579 c-41 -24 -60 -110 -36 -162 29 -63 133 -67 164 -7 19 37 4
39 -37 5 -16 -14 -35 -25 -43 -25 -19 0 -52 32 -60 58 -6 22 -5 22 76 22 l82
0 -6 38 c-11 65 -84 103 -140 71z m100 -48 c6 -14 10 -29 7 -33 -6 -9 -108
-11 -117 -2 -7 8 11 45 27 57 23 15 70 3 83 -22z"/>
<path d="M6110 520 l0 -152 91 4 c85 3 92 5 115 31 31 36 30 68 -1 105 -22 26
-23 31 -10 42 22 18 19 73 -5 95 -16 14 -42 20 -105 23 l-85 5 0 -153z m160
100 c11 -11 20 -24 20 -30 0 -27 -41 -50 -90 -50 l-50 0 0 50 0 50 50 0 c37 0
55 -5 70 -20z m13 -124 c26 -20 19 -67 -13 -83 -14 -7 -46 -13 -72 -13 l-48 0
0 55 0 55 58 0 c33 -1 65 -7 75 -14z"/>
<path d="M6376 643 c52 -211 71 -268 90 -271 18 -3 25 12 54 118 18 66 36 117
39 114 3 -3 20 -56 37 -117 25 -92 34 -113 51 -115 18 -3 24 12 56 136 43 161
43 162 19 162 -15 0 -22 -19 -42 -107 -12 -60 -26 -114 -30 -121 -3 -7 -21 41
-40 108 -29 109 -35 121 -53 118 -16 -2 -25 -15 -35 -53 -7 -27 -23 -81 -34
-120 l-21 -70 -23 100 c-13 55 -26 110 -29 123 -3 14 -13 22 -25 22 -17 0 -19
-4 -14 -27z"/>
<path d="M6900 520 c0 -143 1 -150 20 -150 19 0 20 7 21 123 l1 122 41 -123
c55 -162 64 -162 121 2 l41 119 3 -122 c2 -113 4 -121 23 -121 19 0 19 6 17
148 l-3 147 -26 3 c-26 3 -28 -1 -69 -122 -23 -69 -43 -126 -45 -126 -2 0 -22
56 -45 125 -41 122 -42 125 -71 125 l-29 0 0 -150z"/>
<path d="M7620 520 c0 -127 2 -150 15 -150 11 0 15 12 15 44 0 27 6 48 15 56
18 15 14 18 55 -47 20 -34 39 -53 51 -53 10 0 19 2 19 6 0 3 -18 32 -41 66
l-41 60 36 37 c20 20 36 40 36 44 0 20 -36 2 -80 -39 l-50 -47 0 87 c0 70 -3
86 -15 86 -13 0 -15 -23 -15 -150z"/>
<path d="M7820 650 c0 -11 7 -20 15 -20 8 0 15 9 15 20 0 11 -7 20 -15 20 -8
0 -15 -9 -15 -20z"/>
<path d="M8510 520 c0 -143 1 -150 20 -150 18 0 20 7 20 65 l0 65 58 0 c31 0
64 -4 72 -10 8 -5 17 -31 20 -62 4 -44 9 -54 26 -56 19 -3 20 0 13 60 -4 38
-13 66 -23 74 -14 10 -14 13 4 29 21 19 26 65 10 95 -14 26 -63 40 -146 40
l-74 0 0 -150z m168 104 c28 -20 30 -69 3 -84 -11 -5 -45 -10 -75 -10 l-56 0
0 55 0 55 53 0 c31 0 61 -6 75 -16z"/>
<path d="M9030 520 c0 -127 2 -150 15 -150 13 0 15 23 15 150 0 127 -2 150
-15 150 -13 0 -15 -23 -15 -150z"/>
<path d="M7280 583 c-19 -8 -39 -34 -40 -50 0 -20 24 -15 38 8 10 15 21 19 50
17 32 -3 37 -7 37 -27 0 -21 -7 -26 -52 -36 -64 -15 -83 -29 -83 -65 0 -55 71
-81 125 -46 20 13 24 13 29 1 3 -8 15 -15 26 -15 21 0 26 10 11 26 -5 5 -11
44 -13 86 -2 43 -9 83 -15 89 -13 13 -91 22 -113 12z m88 -135 c-3 -37 -43
-64 -77 -53 -48 15 -25 71 33 78 17 2 35 5 39 5 5 1 7 -13 5 -30z"/>
<path d="M7480 480 c0 -91 3 -110 15 -110 12 0 15 14 15 66 0 74 11 101 46
114 25 10 34 40 11 40 -7 0 -23 -7 -35 -16 -20 -14 -22 -14 -22 0 0 9 -7 16
-15 16 -12 0 -15 -19 -15 -110z"/>
<path d="M7820 480 c0 -91 3 -110 15 -110 12 0 15 19 15 110 0 91 -3 110 -15
110 -12 0 -15 -19 -15 -110z"/>
<path d="M7920 480 c0 -91 3 -110 15 -110 12 0 15 15 15 75 0 83 18 115 65
115 34 0 45 -27 45 -114 0 -61 3 -76 15 -76 12 0 15 17 15 93 0 78 -3 97 -18
110 -23 21 -71 22 -100 1 -20 -14 -22 -14 -22 0 0 9 -7 16 -15 16 -12 0 -15
-19 -15 -110z"/>
<path d="M8175 568 c-49 -43 -51 -149 -2 -183 28 -20 76 -19 99 2 17 15 18 15
18 -8 0 -41 -27 -69 -65 -69 -21 0 -37 6 -43 16 -5 9 -18 14 -28 12 -17 -3
-17 -6 8 -31 43 -43 123 -32 147 20 6 13 11 75 11 138 0 96 -3 115 -15 115 -8
0 -15 -5 -15 -11 0 -5 -10 -3 -22 5 -31 22 -62 20 -93 -6z m99 -30 c9 -12 16
-38 16 -58 0 -69 -57 -104 -102 -63 -23 20 -24 90 -2 121 20 30 68 30 88 0z"/>
<path d="M8800 497 c0 -78 3 -97 18 -110 24 -22 80 -22 104 0 17 15 18 15 18
0 0 -10 7 -17 15 -17 12 0 15 19 15 110 0 87 -3 110 -14 110 -10 0 -15 -21
-18 -79 -5 -89 -17 -111 -59 -111 -39 0 -49 24 -49 114 0 61 -3 76 -15 76 -12
0 -15 -17 -15 -93z"/>
<path d="M9157 579 c-41 -24 -60 -110 -36 -162 29 -63 133 -67 164 -7 19 37 4
39 -37 5 -16 -14 -35 -25 -43 -25 -19 0 -52 32 -60 58 -6 22 -5 22 76 22 l82
0 -6 38 c-11 65 -84 103 -140 71z m100 -48 c6 -14 10 -29 7 -33 -6 -9 -108
-11 -117 -2 -7 8 11 45 27 57 23 15 70 3 83 -22z"/>
</g>
</svg>
